<svg width="19" height="22" viewBox="0 0 19 22" fill="none" xmlns="http://www.w3.org/2000/svg">
<path fill-rule="evenodd" clip-rule="evenodd" d="M9.85808 21.4039C4.90986 21.4039 0.888489 20.0456 0.888489 18.3856V15.3673C0.888489 15.1107 1.02303 14.8541 1.20242 14.6127C2.20403 15.9105 5.68722 16.8764 9.85808 16.8764C14.0289 16.8764 17.5121 15.9105 18.5137 14.6127C18.7081 14.8541 18.8277 15.1107 18.8277 15.3673V18.3856C18.8277 20.0456 14.8063 21.4039 9.85808 21.4039ZM9.85808 15.3673C4.90986 15.3673 0.888489 14.009 0.888489 12.3489V9.33063C0.888489 9.16462 0.948286 9.01371 1.02303 8.86279C1.06788 8.77224 1.12768 8.6666 1.20242 8.57605C2.20403 9.87393 5.68722 10.8398 9.85808 10.8398C14.0289 10.8398 17.5121 9.87393 18.5137 8.57605C18.5885 8.6666 18.6483 8.77224 18.6931 8.86279C18.7679 9.01371 18.8277 9.17971 18.8277 9.33063V12.3489C18.8277 14.009 14.8063 15.3673 9.85808 15.3673ZM9.85808 9.33063C4.90986 9.33063 0.888489 7.97239 0.888489 6.31232V3.29401C0.888489 1.63394 4.90986 0.275696 9.85808 0.275696C14.8063 0.275696 18.8277 1.63394 18.8277 3.29401V6.31232C18.8277 7.97239 14.8063 9.33063 9.85808 9.33063ZM9.85808 1.78485C6.55428 1.78485 3.87835 2.46397 3.87835 3.29401C3.87835 4.12404 6.55428 4.80316 9.85808 4.80316C13.1619 4.80316 15.8378 4.12404 15.8378 3.29401C15.8378 2.46397 13.1619 1.78485 9.85808 1.78485Z" fill="#EFE8E8"/>
</svg>
